<?xml version="1.0" encoding="UTF-8"?>
<svg id="_레이어_1" data-name="레이어 1" xmlns="http://www.w3.org/2000/svg" xmlns:xlink="http://www.w3.org/1999/xlink" viewBox="0 0 1700.79 1700.79">
  <defs>
    <style>
      .cls-1 {
        fill: #2c2c33;
      }

      .cls-2 {
        fill: url(#_무제_그라디언트_60-4);
      }

      .cls-3 {
        fill: url(#_무제_그라디언트_60-3);
      }

      .cls-4 {
        fill: url(#_무제_그라디언트_60-5);
      }

      .cls-5 {
        fill: url(#_무제_그라디언트_60-2);
      }

      .cls-6 {
        fill: url(#_무제_그라디언트_60);
      }
    </style>
    <linearGradient id="_무제_그라디언트_60" data-name="무제 그라디언트 60" x1="165.64" y1="850.39" x2="612.55" y2="850.39" gradientUnits="userSpaceOnUse">
      <stop offset="0" stop-color="#ad99c8" stop-opacity=".2"/>
      <stop offset="1" stop-color="#4f99c6"/>
    </linearGradient>
    <linearGradient id="_무제_그라디언트_60-2" data-name="무제 그라디언트 60" x1="719.38" y1="850.39" x2="1166.85" y2="850.39" xlink:href="#_무제_그라디언트_60"/>
    <linearGradient id="_무제_그라디언트_60-3" data-name="무제 그라디언트 60" x1="1087.68" y1="850.39" x2="1535.15" y2="850.39" xlink:href="#_무제_그라디언트_60"/>
    <linearGradient id="_무제_그라디언트_60-4" data-name="무제 그라디언트 60" x1="533.04" y1="645.22" x2="682.25" y2="645.22" xlink:href="#_무제_그라디언트_60"/>
    <linearGradient id="_무제_그라디언트_60-5" data-name="무제 그라디언트 60" x1="533.04" y1="962.3" x2="682.25" y2="962.3" xlink:href="#_무제_그라디언트_60"/>
  </defs>
<!--  <rect class="cls-1" width="1700.79" height="1700.79"/>-->
  <g>
    <path class="cls-6" d="m538.31,851.13c-21.45-19.11-46.6-34.17-74.24-43.94-.24-.09-.49-.16-.73-.25-23.13-8.09-47.99-12.5-73.88-12.5,0,0-.01,0-.02,0,0,0,0,0-.01,0-26.15,0-51.25,4.5-74.58,12.74v-236.57h-149.21v559.55h149.21v-111.91c0-41.2,33.39-74.6,74.59-74.61,37.77,0,68.96,28.08,73.89,64.5v122.02h149.21v-111.91s0,0,0,0v-18.18c-4.75-59.11-32.48-111.73-74.24-148.95Z"/>
    <path class="cls-5" d="m1166.32,906.35h-148.51c0,2.97-.19,5.88-.53,8.76-4.34,37.07-35.84,65.85-74.08,65.85-41.2,0-74.61-33.4-74.61-74.61h0v-111.91c0-41.2,33.4-74.61,74.61-74.61,0,0,0,0,.01,0,0,0,.01,0,.02,0,37.7,0,68.85,27.96,73.88,64.28.06.46.12.93.18,1.39.35,2.93.55,5.91.55,8.94h148.49v-17.8c-4.66-59.26-32.41-112.02-74.26-149.32-21.45-19.12-46.61-34.18-74.26-43.95-.23-.08-.47-.16-.7-.24-23.14-8.09-48-12.51-73.9-12.51-26.16,0-51.26,4.51-74.59,12.75h0s-.02,0-.03,0c-86.08,30.43-147.99,112.01-149.19,208.23v114.75h-.03c0,97.45,62.29,180.34,149.21,211.07,23.34,8.25,48.44,12.75,74.61,12.75s51.27-4.5,74.61-12.75c27.65-9.77,52.8-24.83,74.26-43.95,43.96-39.18,72.36-95.43,74.79-158.36-.34-2.87-.53-5.79-.53-8.76Z"/>
    <path class="cls-3" d="m1534.62,906.35h-148.51c0,2.97-.19,5.88-.53,8.76-4.34,37.07-35.84,65.85-74.08,65.85-41.2,0-74.61-33.4-74.61-74.61h0v-111.91c0-41.2,33.4-74.61,74.61-74.61,0,0,0,0,.01,0,0,0,.01,0,.02,0,37.7,0,68.85,27.96,73.88,64.28.06.46.12.93.18,1.39.35,2.93.55,5.91.55,8.94h148.49v-17.8c-4.66-59.26-32.41-112.02-74.26-149.32-21.45-19.12-46.61-34.18-74.26-43.95-.23-.08-.47-.16-.7-.24-23.14-8.09-48-12.51-73.9-12.51-26.16,0-51.26,4.51-74.59,12.75h0s-.02,0-.03,0c-86.08,30.43-147.99,112.01-149.19,208.23v114.75h-.03c0,97.45,62.29,180.34,149.21,211.07,23.34,8.25,48.44,12.75,74.61,12.75s51.27-4.5,74.61-12.75c27.65-9.77,52.8-24.83,74.26-43.95,43.96-39.18,72.36-95.43,74.79-158.36-.34-2.87-.53-5.79-.53-8.76Z"/>
    <g>
      <polygon class="cls-2" points="533.04 570.62 533.04 645.22 533.04 719.83 682.25 719.83 682.25 645.22 682.25 570.62 533.04 570.62"/>
      <path class="cls-4" d="m533.04,806.94h0v200.99c.06.46.12.93.18,1.39.35,2.93.55,5.91.55,8.94v111.91h148.49v-111.91s0,0,0,0v-211.07h0v-12.75h-149.21v12.5Z"/>
    </g>
  </g>
</svg>