<svg width="40" height="40" viewBox="0 0 40 40" fill="none" xmlns="http://www.w3.org/2000/svg">
<g opacity="0.5">
<path d="M12.9999 3.3335H26.9999C32.3333 3.3335 36.6666 7.66683 36.6666 13.0002V27.0002C36.6666 29.5639 35.6481 32.0227 33.8353 33.8355C32.0224 35.6484 29.5637 36.6668 26.9999 36.6668H12.9999C7.66659 36.6668 3.33325 32.3335 3.33325 27.0002V13.0002C3.33325 10.4364 4.3517 7.97765 6.16455 6.1648C7.9774 4.35195 10.4362 3.3335 12.9999 3.3335ZM12.6666 6.66683C11.0753 6.66683 9.54916 7.29897 8.42394 8.42419C7.29873 9.54941 6.66659 11.0755 6.66659 12.6668V27.3335C6.66659 30.6502 9.34992 33.3335 12.6666 33.3335H27.3333C28.9245 33.3335 30.4507 32.7014 31.5759 31.5761C32.7011 30.4509 33.3333 28.9248 33.3333 27.3335V12.6668C33.3333 9.35016 30.6499 6.66683 27.3333 6.66683H12.6666ZM28.7499 9.16683C29.3025 9.16683 29.8324 9.38632 30.2231 9.77702C30.6138 10.1677 30.8333 10.6976 30.8333 11.2502C30.8333 11.8027 30.6138 12.3326 30.2231 12.7233C29.8324 13.114 29.3025 13.3335 28.7499 13.3335C28.1974 13.3335 27.6675 13.114 27.2768 12.7233C26.8861 12.3326 26.6666 11.8027 26.6666 11.2502C26.6666 10.6976 26.8861 10.1677 27.2768 9.77702C27.6675 9.38632 28.1974 9.16683 28.7499 9.16683ZM19.9999 11.6668C22.2101 11.6668 24.3297 12.5448 25.8925 14.1076C27.4553 15.6704 28.3333 17.79 28.3333 20.0002C28.3333 22.2103 27.4553 24.3299 25.8925 25.8927C24.3297 27.4555 22.2101 28.3335 19.9999 28.3335C17.7898 28.3335 15.6702 27.4555 14.1074 25.8927C12.5446 24.3299 11.6666 22.2103 11.6666 20.0002C11.6666 17.79 12.5446 15.6704 14.1074 14.1076C15.6702 12.5448 17.7898 11.6668 19.9999 11.6668ZM19.9999 15.0002C18.6738 15.0002 17.4021 15.5269 16.4644 16.4646C15.5267 17.4023 14.9999 18.6741 14.9999 20.0002C14.9999 21.3262 15.5267 22.598 16.4644 23.5357C17.4021 24.4734 18.6738 25.0002 19.9999 25.0002C21.326 25.0002 22.5978 24.4734 23.5355 23.5357C24.4731 22.598 24.9999 21.3262 24.9999 20.0002C24.9999 18.6741 24.4731 17.4023 23.5355 16.4646C22.5978 15.5269 21.326 15.0002 19.9999 15.0002Z" fill="black"/>
</g>
</svg>
